<?xml version="1.0" standalone="no"?>
<!DOCTYPE svg PUBLIC "-//W3C//DTD SVG 20010904//EN"
 "http://www.w3.org/TR/2001/REC-SVG-20010904/DTD/svg10.dtd">
<svg version="1.0" xmlns="http://www.w3.org/2000/svg"
 width="590.000000pt" height="590.000000pt" viewBox="0 0 590.000000 590.000000"
 preserveAspectRatio="xMidYMid meet">
<metadata>
Created by potrace 1.11, written by Peter Selinger 2001-2013
</metadata>
<g transform="translate(0.000000,590.000000) scale(0.100000,-0.100000)"
fill="#000000" stroke="none">
<path d="M1576 5882 c-6 -11 0 -325 8 -377 5 -37 11 -73 23 -135 12 -69 69
-268 93 -325 4 -11 15 -39 24 -62 109 -293 353 -628 587 -805 130 -99 322
-200 434 -229 17 -4 54 -14 84 -23 30 -8 76 -18 101 -21 l48 -6 7 48 c5 26 9
53 10 59 22 102 21 385 0 532 -13 88 -19 114 -42 202 -31 122 -98 262 -166
353 -113 150 -205 215 -522 374 -137 69 -288 148 -335 176 -88 53 -296 203
-319 231 -15 18 -27 20 -35 8z"/>
<path d="M4845 5495 c-16 -8 -102 -46 -190 -86 -536 -238 -936 -514 -1175
-809 -25 -30 -47 -57 -50 -60 -14 -13 -82 -122 -119 -192 -43 -81 -105 -254
-117 -325 l-7 -43 44 15 c24 7 117 39 207 70 90 30 181 58 202 60 21 3 50 9
64 15 15 5 26 8 26 5 0 -2 14 0 32 5 17 5 50 12 72 15 373 54 548 122 707 277
71 69 99 107 150 208 60 119 102 274 134 495 4 22 8 51 10 65 2 14 7 45 10 70
12 87 31 169 50 213 9 21 -8 22 -50 2z"/>
<path d="M1948 4005 c-2 -2 -40 -7 -83 -10 -383 -29 -720 -188 -953 -450 -197
-221 -292 -467 -292 -753 0 -255 75 -476 230 -680 58 -75 2095 -2120 2104
-2111 3 2 471 470 1041 1039 571 569 1056 1062 1080 1095 46 66 118 189 128
220 3 11 17 53 32 94 73 211 71 490 -6 706 -108 303 -359 568 -674 712 -49 23
-117 49 -150 58 -33 10 -64 20 -70 23 -5 3 -16 7 -25 8 -8 1 -53 8 -100 17
-68 13 -175 25 -245 29 -26 2 -207 -14 -265 -23 -162 -24 -359 -95 -498 -177
-62 -37 -142 -94 -219 -158 l-32 -26 -58 50 c-221 189 -517 306 -828 327 -55
4 -103 9 -106 11 -3 2 -8 1 -11 -1z"/>
</g>
</svg>
