<?xml version="1.0" encoding="utf-8"?>
<!-- Generator: Adobe Illustrator 24.1.1, SVG Export Plug-In . SVG Version: 6.00 Build 0)  -->
<svg version="1.1" id="Calque_1" xmlns="http://www.w3.org/2000/svg" xmlns:xlink="http://www.w3.org/1999/xlink" x="0px" y="0px"
	 viewBox="0 0 19.81 25.99" style="enable-background:new 0 0 19.81 25.99;" xml:space="preserve">
<style type="text/css">
	.st0{fill:#F18424;}
</style>
<g id="Groupe_805" transform="translate(-180 -285)">
	<g id="Groupe_804" transform="translate(180 285)">
		<ellipse id="Ellipse_281" class="st0" cx="9.91" cy="5.46" rx="5.48" ry="5.48"/>
		<path id="Tracé_654" class="st0" d="M13.61,12.68l-3.7,5.05l-3.7-5.05c0,0-6.2,0-6.2,4.06v6.81c0,0,0,2.44,5.9,2.44h3.73
			c0.01-0.44-0.02-0.88-0.09-1.32c-0.2-1.12-1.32-0.92-2.75-1.12s-2.54-2.21-2.34-5.83c0.69,1.02,1.69,1.79,2.85,2.2
			c1.88,0.56,2.24,3.13,2.24,3.13c-0.22-1.32,0.44-2.63,1.63-3.25c1.76-0.75,3.3-1.94,4.47-3.46c-0.01,1.58-0.29,3.14-0.81,4.63
			c-0.73,1.67-2.05,2.03-3.97,2.9c-0.5,0.23-0.25,2.13-0.25,2.13h3.3c5.9,0,5.9-2.44,5.9-2.44v-6.81
			C19.82,12.68,13.61,12.68,13.61,12.68z"/>
	</g>
</g>
</svg>
